<?xml version="1.0" encoding="utf-8"?>
<!-- Generator: Adobe Illustrator 16.0.0, SVG Export Plug-In . SVG Version: 6.00 Build 0)  -->
<!DOCTYPE svg PUBLIC "-//W3C//DTD SVG 1.1//EN" "http://www.w3.org/Graphics/SVG/1.1/DTD/svg11.dtd">
<svg version="1.1" id="图层_1" xmlns="http://www.w3.org/2000/svg" xmlns:xlink="http://www.w3.org/1999/xlink" x="0px" y="0px"
	 width="3000px" height="1500px" viewBox="0 0 3000 1500" enable-background="new 0 0 3000 1500" xml:space="preserve">
<path fill="#DCDBDB" d="M2163.187,724.974v-34.844l0.146-294.172h5.638v-60.396h-5.386l0.075-67.797h-178.287v61.431h-406.219
	v77.345h-114.66v-24.813h-6.107v6.938h-14.028l-90.509,0.077l-20.134,0.075h-4.451v17.949h-116.979v-18.024h-191.949v-7.014h-4.448
	v413.388H484.091l0.147,43.22h89.979v301.84h196.325V958.027l26.697-0.078v7.396h72.403V884.79h-17.119v1.89h-12.144v-1.963h-40.125
	v6.108h-29.94v-52.043l117.205,0.229v300.328h326.2V865.406l176.938-0.227l1.057,274.311h301.012v15.84l11.688-0.076l-0.073,42.613
	l178.224,0.301v-360.52h15.388v121.729l352.299-0.301V897.91h15.916v300.59h176.41l1.057-473.452h-280.116l-0.002-0.072
	L2163.187,724.974L2163.187,724.974z M1147.577,798.135l-0.227-67.275l125.123-0.149l31.073,67.276L1147.577,798.135z
	 M1323.916,797.982l-31.902-67.202l165.25-0.229l0.147,66.749L1323.916,797.982z M1521.37,797.982v-67.729h159.291l-30.471,67.729
	H1521.37z M1769.584,797.982h-99.558l30.469-67.729h69.089V797.982z"/>
<polygon fill="#D7FFEF" points="1042.422,834.011 1042.422,834.165 1026.275,834.165 1024.434,834.165 1018.248,834.165 
	1018.248,834.388 887.543,834.388 887.543,1139.323 1019.154,1139.323 1019.154,1139.189 1040.498,1139.189 1040.498,1093.618 
	1019.154,1093.618 1019.154,896.01 1046.607,896.01 1046.607,882.361 1046.607,852.341 1063.954,852.341 1063.954,834.011 "/>
<polygon fill="#E3FFE4" points="1213.594,895.005 1213.594,833.839 1116.072,833.839 1116.072,834.136 1099.687,834.136 
	1097.668,834.136 1085.601,834.136 1085.601,843.265 1097.668,843.265 1097.668,852.695 1104.76,852.695 1104.76,868.454 
	1116.072,868.454 1116.072,895.005 1086.132,895.005 1086.132,1093.136 1065.313,1093.136 1065.313,1093.177 1047.136,1093.177 
	1047.136,1139.409 1065.313,1139.409 1065.313,1139.418 1086.132,1139.418 1086.132,1139.448 1213.744,1139.448 1213.744,895.005 
	"/>
<polygon fill="#C9F2F0" points="1517.24,410.954 1459.469,410.954 1459.469,388.553 1331.552,388.553 1331.552,410.954 
	1292.558,410.954 1292.558,438.406 1328.675,438.406 1328.675,438.51 1331.552,438.51 1331.552,703.215 1459.469,703.215 
	1459.469,435.468 1517.24,435.468 "/>
<polygon fill="#E3FFE4" points="1269.779,410.881 1258.447,410.881 1210.347,410.881 1210.347,389.156 1016.437,389.156 
	1016.437,706.606 1210.347,706.606 1210.347,438.18 1258.447,438.18 1269.779,438.18 1291.502,438.18 1291.502,410.881 "/>
<rect x="1702.131" y="837.981" fill="#E3FFE4" width="180.481" height="360.139"/>
<polyline fill="#C9F2F0" points="574.198,837.031 574.198,1140.076 770.521,1140.076 770.521,957.855 797.22,957.781 
	797.22,965.175 869.552,965.175 869.552,884.621 852.582,884.621 852.582,886.51 840.437,886.51 840.437,884.55 800.315,884.55 
	800.315,890.654 770.295,890.654 770.295,836.277 "/>
<rect x="2266.861" y="827.057" fill="#E3FFE4" width="174.753" height="370.396"/>
<rect x="1981.01" y="746.508" fill="#F9E8D4" width="22.55" height="48.191"/>
<rect x="2270.254" y="732.177" fill="#F9E8D4" width="21.42" height="43.442"/>
<polygon fill="#D7FFEF" points="2168.971,335.696 2163.164,335.696 2163.164,267.765 1985.393,267.765 1985.393,329.196 
	1935.991,329.196 1935.991,703.326 1985.393,703.326 2163.164,703.326 2163.164,395.884 2168.971,395.884 "/>
<rect x="1851.661" y="731.873" fill="#F9E8D4" width="26.552" height="50.079"/>
<rect x="1498.685" y="635.316" fill="#F9E8D4" width="22.25" height="50.076"/>
<rect x="1019.981" y="638.427" fill="#F9E8D4" width="22.627" height="50.078"/>
<rect x="723.424" y="896.371" fill="#F9E8D4" width="44.949" height="22.627"/>
<rect x="1521.992" y="770.341" fill="#F9E8D4" width="55.887" height="26.021"/>
<rect x="1019.68" y="779.014" fill="#F9E8D4" width="63.729" height="21.721"/>
<rect x="1334.944" y="769.434" fill="#F9E8D4" width="104.986" height="25.871"/>
<rect x="1880.096" y="334.249" fill="#DC902C" width="22.552" height="42.99"/>
<g>
	<text transform="matrix(1.0039 0 0 1 1887.0076 355.197)" fill="#FFFFFF" font-family="'MicrosoftYaHei'" font-size="8.2817">楼</text>
	<text transform="matrix(1.0039 0 0 1 1887.1599 365.1521)" fill="#FFFFFF" font-family="'MicrosoftYaHei'" font-size="8.2817">梯</text>
</g>
<rect x="2335.344" y="730.594" fill="#C9F2F0" width="103.782" height="64.86"/>
<rect x="2034.785" y="787.234" fill="#C9F2F0" width="24.285" height="14.631"/>
<rect x="1981.01" y="796.135" fill="#C9F2F0" width="22.399" height="5.729"/>
<polygon fill="#D7FFEF" points="1692.394,1040.25 1391.685,1040.25 1391.685,1140.135 1692.394,1140.135 "/>
<polygon fill="#C9F2F0" points="1700.582,870.367 1700.582,851.494 1692.892,851.494 1692.394,851.494 1692.394,837.314 
	1686.479,837.314 1686.479,835.052 1642.358,835.052 1642.358,837.314 1391.685,837.314 1391.685,1039 1692.394,1039 
	1692.394,898.33 1692.892,898.33 1692.892,878.193 1693.798,878.193 1693.798,892.145 1700.66,892.145 1700.66,870.367 "/>
<rect x="1851.661" y="797.416" fill="#C9F2F0" width="23.909" height="4.755"/>
<polygon fill="#CCF297" points="2034.785,747.11 2034.785,762.779 2034.785,765.135 2034.785,785.425 2059.07,785.425 
	2059.07,765.135 2059.07,762.779 2059.07,747.11 "/>
<rect x="1972.563" y="729.159" fill="#C9F2F0" width="87.717" height="2.413"/>
<rect x="2090.75" y="801.639" fill="#BFD9BA" width="30.472" height="2.037"/>
<rect x="2182.389" y="729.463" fill="#C9F2F0" width="1.355" height="73.009"/>
<polygon fill="#C9F2F0" points="2145.959,730.969 2145.959,730.993 2090.75,730.993 2090.75,738.209 2145.959,738.209 
	2145.959,748.994 2163.76,748.994 2163.76,730.969 "/>
<polygon fill="#C9F2F0" points="2163.76,801.639 2163.76,791.082 2145.959,791.082 2145.959,801.639 2139.699,801.639 
	2139.699,803.677 2168.135,803.677 2168.135,801.639 "/>
<polygon fill="#FFB0B0" points="1962.76,690.013 1962.76,678.323 1973.771,678.323 1973.771,670.859 1962.76,670.859 
	1962.76,668.444 1968.267,668.444 1968.267,655.245 1962.76,655.245 1956.198,655.245 1955.219,655.245 1955.219,697.555 
	1956.198,697.555 1956.198,697.635 1980.635,697.635 1980.635,690.013 "/>
<rect x="1903.778" y="333.344" fill="#5C7FB8" stroke="#9FA0A0" stroke-width="0.5" stroke-miterlimit="10" width="12.146" height="44.122"/>
<polygon fill="#92E0FF" points="1496.647,635.41 1470.704,635.41 1470.704,639.559 1470.704,682.471 1470.704,696.954 
	1478.625,696.954 1478.625,682.471 1496.647,682.471 "/>
<rect x="1234.709" y="643.932" fill="#E3FFE4" width="71.882" height="17.646"/>
<polygon fill="#FFB0B0" points="1067.338,833.093 1067.338,854.589 1050.819,854.589 1050.819,896.748 1080.989,896.748 
	1080.989,875.257 1080.989,854.589 1080.989,833.093 "/>
<polygon fill="#92E0FF" points="738.354,959.648 738.354,971.796 753.289,971.796 753.289,981.822 768.373,981.822 768.373,971.796 
	768.373,969.68 768.373,959.648 "/>
<polygon fill="#FFB0B0" points="753.364,982.882 753.364,996.229 738.582,996.229 738.582,1003.242 738.582,1003.242 
	738.582,1009.507 742.578,1009.507 742.578,1015.311 768.448,1015.311 768.448,1009.507 768.448,1006.033 768.448,1003.242 
	768.448,999.246 768.448,998.945 768.448,996.229 768.448,982.882 "/>
<polygon fill="#92E0FF" points="1100.219,870.648 1100.219,855.719 1093.131,855.719 1093.131,845.309 1082.873,845.309 
	1082.873,870.648 1082.873,870.648 1082.873,895.994 1111.307,895.994 1111.307,870.648 "/>
<rect x="1019.699" y="728.634" fill="#C9F2F0" width="65.372" height="48.419"/>
<rect x="1479.844" y="683.906" fill="#C9F2F0" width="16.892" height="13.197"/>
<polygon fill="#FFB0B0" points="1437.065,635.41 1437.065,677.045 1447.927,677.045 1447.927,685.64 1437.065,685.64 
	1437.065,697.783 1469.196,697.783 1469.196,635.41 "/>
<polygon fill="#C9F2F0" points="1920.276,333.344 1920.276,329.196 1579.219,329.196 1579.219,412.235 1563.625,412.235 
	1563.625,438.105 1579.219,438.105 1579.219,678.852 1553.672,678.852 1553.672,697.857 1579.219,697.857 1579.219,703.139 
	1920.276,703.139 1920.276,365.323 1934.021,365.323 1934.021,333.344 "/>
<polygon fill="#92E0FF" points="1970.377,655.245 1970.377,668.296 1976.185,668.296 1976.185,680.512 1965.172,680.512 
	1965.172,687.903 1984.179,687.903 1984.179,687.601 1984.179,680.512 1984.179,668.296 1984.179,666.86 1984.179,655.245 "/>
<text transform="matrix(1 0 0 1 1223.8552 685.4294)" fill="#040000" font-family="'SimHei'" font-size="21.1182">挂号 收费</text>
<polygon fill="#C9F2F0" points="2328.33,754.803 2328.33,755.104 2313.698,755.104 2313.698,765.975 2313.848,765.975 
	2313.848,774.716 2313.848,776.146 2313.848,786.671 2313.848,787.686 2313.848,801.719 2333.385,801.719 2333.385,787.686 
	2333.459,787.686 2333.459,774.716 2326.973,774.716 2326.973,767.697 2328.33,767.697 2328.33,768.529 2328.481,768.529 
	2328.481,773.205 2333.687,773.205 2333.687,768.529 2333.836,768.529 2333.836,767.697 2333.836,763.175 2333.836,754.803 "/>
<rect x="2196.565" y="744.998" fill="#92E0FF" width="11.988" height="18.854"/>
<polygon fill="#FFB0B0" points="2199.205,729.159 2184.649,729.159 2184.649,736.928 2184.649,743.795 2184.649,751.561 
	2195.286,751.561 2195.286,743.795 2199.205,743.795 "/>
<rect x="2239.334" y="789.271" fill="#C9F2F0" width="24.211" height="13.047"/>
<rect x="2270.104" y="795.982" fill="#C9F2F0" width="21.723" height="6.26"/>
<polygon fill="#C9F2F0" points="2196.492,765.059 2196.492,779.389 2196.492,781.882 2196.492,802.316 2208.41,802.316 
	2208.41,781.882 2208.41,779.389 2208.41,765.059 "/>
<polygon fill="#C9F2F0" points="2200.338,729.463 2200.338,734.513 2200.338,735.847 2200.338,743.795 2208.181,743.795 
	2208.181,735.847 2208.181,734.513 2208.181,729.463 "/>
<polygon fill="#C9F2F0" points="1937.076,794.555 1937.076,794.552 1931.104,794.552 1923.916,794.552 1923.916,771.927 
	1907.176,771.927 1907.176,787.234 1901.742,787.234 1901.742,801.564 1907.176,801.564 1907.176,801.564 1923.916,801.564 
	1923.916,801.564 1937.076,801.564 1937.076,801.559 1949.897,801.559 1949.897,794.555 "/>
<rect x="1798.11" y="785.5" fill="#C9F2F0" width="31.703" height="16.894"/>
<polygon fill="#C9F2F0" points="1829.242,730.894 1815.158,730.894 1815.158,730.819 1806.784,730.819 1805.201,730.819 
	1798.488,730.819 1798.488,769.057 1806.784,769.057 1806.784,769.055 1813.233,769.055 1813.233,769.134 1829.187,769.134 
	1829.187,743.263 1829.242,743.263 "/>
<g enable-background="new    ">
	<text transform="matrix(1.0039 0 0 1 2313.698 1021.8035)" fill="#323333" font-family="'MicrosoftYaHei'" font-size="21.1182">静配中心</text>
	<text transform="matrix(1.0039 0 0 1 2313.698 1048.4548)" fill="#323333" font-family="'MicrosoftYaHei'" font-size="21.1182">-e3ffe4</text>
</g>
<g>
	<text transform="matrix(1.0039 0 0 1 1755.5955 1028.2888)" fill="#323333" font-family="'MicrosoftYaHei'" font-size="21.1182">急诊病房</text>
	<text transform="matrix(1.0039 0 0 1 1755.5955 1054.9392)" fill="#323333" font-family="'MicrosoftYaHei'" font-size="21.1182">-e3ffe4</text>
</g>
<g>
	<text transform="matrix(1.0039 0 0 1 1103.9412 1030.0779)" fill="#323333" font-family="'MicrosoftYaHei'" font-size="21.1182">外科门诊</text>
	<text transform="matrix(1.0039 0 0 1 1103.9412 1056.7283)" fill="#323333" font-family="'MicrosoftYaHei'" font-size="21.1182">-e3ffe4</text>
</g>
<g>
	<text transform="matrix(1.0039 0 0 1 928.2634 1027.3123)" fill="#323333" font-family="'MicrosoftYaHei'" font-size="21.1182">肿瘤中</text>
	<text transform="matrix(1.0039 0 0 1 928.2634 1051.3455)" fill="#323333" font-family="'MicrosoftYaHei'" font-size="21.1182">心门诊</text>
	<text transform="matrix(1.0039 0 0 1 928.2634 1077.9958)" fill="#323333" font-family="'MicrosoftYaHei'" font-size="21.1182">-d7ffef</text>
</g>
<g>
	<text transform="matrix(1.0039 0 0 1 1079.9841 550.1511)" fill="#323333" font-family="'MicrosoftYaHei'" font-size="21.1182">内科一</text>
	<text transform="matrix(1.0039 0 0 1 1079.9841 576.8025)" fill="#323333" font-family="'MicrosoftYaHei'" font-size="21.1182">-e3ffe4</text>
</g>
<g>
	<text transform="matrix(1.0039 0 0 1 602.3142 1064.3025)" fill="#323333" font-family="'MicrosoftYaHei'" font-size="21.1182">行政办公-c9f2f0</text>
</g>
<g>
	<text transform="matrix(1.0039 0 0 1 2344.5798 767.8191)" fill="#323333" font-family="'MicrosoftYaHei'" font-size="15.8387">中心药房-c9f2f0</text>
</g>
<rect x="2240.463" y="731.425" fill="#CCF297" width="23.004" height="42.086"/>
<rect x="2313.55" y="732.25" fill="#CCF297" width="20.14" height="21.798"/>
<rect x="2145.731" y="750.805" fill="#CCF297" width="17.877" height="38.768"/>
<rect x="2091.127" y="739.87" fill="#CCF297" width="24.213" height="61.921"/>
<polygon fill="#CCF297" points="1907.472,733.532 1907.472,751.714 1907.472,752.955 1907.472,769.736 1923.39,769.736 
	1923.39,752.955 1923.39,751.714 1923.39,733.532 "/>
<rect x="1832.429" y="733.231" fill="#CCF297" width="17.646" height="22.021"/>
<polygon fill="#CCF297" points="1622.906,1044.574 1618.969,1044.574 1605.26,1044.574 1605.26,1066.598 1618.969,1066.598 
	1622.906,1066.598 1643.496,1066.598 1643.496,1044.574 "/>
<polygon fill="#CCF297" points="1552.987,634.354 1552.987,653.622 1552.987,657.509 1552.987,677.27 1579.688,677.27 
	1579.688,657.509 1579.688,653.622 1579.688,634.354 "/>
<polygon fill="#CCF297" points="1170.75,742.809 1147.972,742.809 1147.972,760.802 1147.897,760.802 1147.897,790.177 
	1170.677,790.177 1170.677,765.968 1170.75,765.968 "/>
<polygon fill="#CCF297" points="1925.5,733.532 1925.5,748.298 1925.5,751.559 1925.5,773.656 1925.5,777.166 1925.5,791.684 
	1949.183,791.684 1949.183,777.166 1949.183,773.656 1949.183,751.559 1949.183,748.298 1949.183,733.532 "/>
<polygon fill="#92E0FF" points="1844.646,895.162 1844.646,906.477 1855.056,906.477 1855.056,913.488 1854.906,913.488 
	1854.906,916.205 1854.906,916.205 1854.906,921.861 1844.573,921.861 1844.573,933.402 1878.812,933.402 1878.812,926.99 
	1878.812,921.861 1878.812,916.205 1878.812,916.205 1878.812,914.173 1878.89,914.173 1878.89,906.477 1878.89,898.857 
	1878.89,895.162 "/>
<g>
	<text transform="matrix(1.0039 0 0 1 1476.2869 1099.3386)" fill="#323333" font-family="'MicrosoftYaHei'" font-size="21.1182">儿科输液-d7ffef</text>
</g>
<g>
	<text transform="matrix(1.0039 0 0 1 2010.4949 476.4226)" fill="#323333" font-family="'MicrosoftYaHei'" font-size="21.1182">内镜中心</text>
	<text transform="matrix(1.0039 0 0 1 2010.4949 503.073)" fill="#323333" font-family="'MicrosoftYaHei'" font-size="21.1182">-d7ffef</text>
</g>
<g>
	<g>
		<text transform="matrix(1.0039 0 0 1 1727.8396 502.0896)" fill="#323333" font-family="'MicrosoftYaHei'" font-size="21.1182">检验科</text>
		<text transform="matrix(1.0039 0 0 1 1727.8396 528.74)" fill="#323333" font-family="'MicrosoftYaHei'" font-size="21.1182">-c9f2f0</text>
	</g>
</g>
<g>
	<text transform="matrix(1.0039 0 0 1 1069.6873 831.8494)" fill="#323333" font-family="'MicrosoftYaHei'" font-size="21.1182">茶水间</text>
</g>
<text transform="matrix(1 0 0 1 1156.3337 768.8328)" font-family="'MicrosoftYaHei'" font-size="12">电梯-ccf297</text>
<text transform="matrix(1 0 0 1 1620.3337 1059.8328)" font-family="'MicrosoftYaHei'" font-size="12">电梯-ccf297</text>
<text transform="matrix(1 0 0 1 1907.4724 750.8054)" font-family="'MicrosoftYaHei'" font-size="12">电梯-ccf297</text>
<text transform="matrix(1 0 0 1 1566.3376 655.8123)" font-family="'MicrosoftYaHei'" font-size="12">电梯-ccf297</text>
<text transform="matrix(1 0 0 1 2020.4216 756.9119)" font-family="'MicrosoftYaHei'" font-size="12">电梯-ccf297</text>
<text transform="matrix(1 0 0 1 2074.4177 778.2605)" font-family="'MicrosoftYaHei'" font-size="12">电梯-ccf297</text>
<text transform="matrix(1 0 0 1 2117.4177 763.0242)" font-family="'MicrosoftYaHei'" font-size="12">电梯-ccf297</text>
<text transform="matrix(1 0 0 1 2241.7517 728.0242)" font-family="'MicrosoftYaHei'" font-size="12">电梯-ccf297</text>
<text transform="matrix(1 0 0 1 2314.7517 728.0242)" font-family="'MicrosoftYaHei'" font-size="12">电梯-ccf297</text>
<text transform="matrix(1 0 0 1 1834.1482 726.9822)" font-family="'MicrosoftYaHei'" font-size="12">电梯-ccf297</text>
<text transform="matrix(1 0 0 1 1356.4031 786.9988)" font-family="'MicrosoftYaHei'" font-size="12">扶梯-f9e8d4</text>
<text transform="matrix(1 0 0 1 1019.9812 664.9236)" font-family="'MicrosoftYaHei'" font-size="12">楼梯</text>
<text transform="matrix(1 0 0 1 1019.9812 679.3318)" font-family="'MicrosoftYaHei'" font-size="12">-f9e8d4</text>
<text transform="matrix(1 0 0 1 1019.9812 789.866)" font-family="'MicrosoftYaHei'" font-size="12">楼梯</text>
<text transform="matrix(1 0 0 1 1019.9812 804.2751)" font-family="'MicrosoftYaHei'" font-size="12">-f9e8d4</text>
<text transform="matrix(1 0 0 1 729.9812 914.2751)" font-family="'MicrosoftYaHei'" font-size="12">楼梯</text>
<text transform="matrix(1 0 0 1 729.9812 928.6833)" font-family="'MicrosoftYaHei'" font-size="12">-f9e8d4</text>
<text transform="matrix(1 0 0 1 1540.6707 781.9441)" font-family="'MicrosoftYaHei'" font-size="12">楼梯</text>
<text transform="matrix(1 0 0 1 1540.6707 796.3533)" font-family="'MicrosoftYaHei'" font-size="12">-f9e8d4</text>
<text transform="matrix(1 0 0 1 1856.0037 763.8425)" font-family="'MicrosoftYaHei'" font-size="12">楼梯</text>
<text transform="matrix(1 0 0 1 1856.0037 778.2517)" font-family="'MicrosoftYaHei'" font-size="12">-f9e8d4</text>
<text transform="matrix(1 0 0 1 1984.1794 775.6121)" font-family="'MicrosoftYaHei'" font-size="12">楼梯</text>
<text transform="matrix(1 0 0 1 1984.1794 790.0212)" font-family="'MicrosoftYaHei'" font-size="12">-f9e8d4</text>
<text transform="matrix(1 0 0 1 2274.6794 767.8113)" font-family="'MicrosoftYaHei'" font-size="12">楼梯</text>
<text transform="matrix(1 0 0 1 2274.6794 782.2205)" font-family="'MicrosoftYaHei'" font-size="12">-f9e8d4</text>
<text transform="matrix(1 0 0 1 1503.8455 671.5652)" font-family="'MicrosoftYaHei'" font-size="12">楼梯</text>
<text transform="matrix(1 0 0 1 1503.8455 685.9734)" font-family="'MicrosoftYaHei'" font-size="12">-f9e8d4</text>
<text transform="matrix(1 0 0 1 1430.0916 659.2253)" font-family="'MicrosoftYaHei'" font-size="7.9673">女卫-</text>
<text transform="matrix(1 0 0 1 1430.0916 667.6619)" font-family="'MicrosoftYaHei'" font-size="7.9673">ffb0b0</text>
<text transform="matrix(1 0 0 1 1470.7039 659.2253)" font-family="'MicrosoftYaHei'" font-size="7.9673">男卫-</text>
<text transform="matrix(1 0 0 1 1470.7039 667.6619)" font-family="'MicrosoftYaHei'" font-size="7.9673">92e0ff</text>
<text transform="matrix(1 0 0 1 1946.1248 682.8406)" font-family="'MicrosoftYaHei'" font-size="6">女卫-</text>
<text transform="matrix(1 0 0 1 1946.1248 689.1941)" font-family="'MicrosoftYaHei'" font-size="6">ffb0b0</text>
<text transform="matrix(1 0 0 1 1976.2908 665.0916)" font-family="'MicrosoftYaHei'" font-size="6">男卫-</text>
<text transform="matrix(1 0 0 1 1976.2908 671.4451)" font-family="'MicrosoftYaHei'" font-size="6">92e0ff</text>
<text transform="matrix(1 0 0 1 2176.8435 737.4744)" font-family="'MicrosoftYaHei'" font-size="6">女卫-</text>
<text transform="matrix(1 0 0 1 2176.8435 743.8279)" font-family="'MicrosoftYaHei'" font-size="6">ffb0b0</text>
<text transform="matrix(1 0 0 1 2200.3376 754.8933)" font-family="'MicrosoftYaHei'" font-size="6">男卫-</text>
<text transform="matrix(1 0 0 1 2200.3376 761.2458)" font-family="'MicrosoftYaHei'" font-size="6">92e0ff</text>
<text transform="matrix(1 0 0 1 1056.2996 879.8728)" font-family="'MicrosoftYaHei'" font-size="6">女卫-</text>
<text transform="matrix(1 0 0 1 1056.2996 886.2263)" font-family="'MicrosoftYaHei'" font-size="6">ffb0b0</text>
<text transform="matrix(1 0 0 1 1086.8835 879.8728)" font-family="'MicrosoftYaHei'" font-size="6">男卫-</text>
<text transform="matrix(1 0 0 1 1086.8835 886.2263)" font-family="'MicrosoftYaHei'" font-size="6">92e0ff</text>
<text transform="matrix(1 0 0 1 1858.0505 915.1287)" font-family="'MicrosoftYaHei'" font-size="6">男卫-</text>
<text transform="matrix(1 0 0 1 1858.0505 921.4822)" font-family="'MicrosoftYaHei'" font-size="6">92e0ff</text>
<text transform="matrix(1 0 0 1 748.05 1003.2908)" font-family="'MicrosoftYaHei'" font-size="6">女卫-</text>
<text transform="matrix(1 0 0 1 748.05 1009.6443)" font-family="'MicrosoftYaHei'" font-size="6">ffb0b0</text>
<text transform="matrix(1 0 0 1 749.967 966.1238)" font-family="'MicrosoftYaHei'" font-size="6">男卫-</text>
<text transform="matrix(1 0 0 1 749.967 972.4773)" font-family="'MicrosoftYaHei'" font-size="6">92e0ff</text>
<text transform="matrix(1 0 0 1 1381.4998 587.8337)" font-family="'MicrosoftYaHei'" font-size="6">c9f2f0</text>
</svg>
